<?xml version="1.0" ?><!-- Uploaded to: SVG Repo, www.svgrepo.com, Generator: SVG Repo Mixer Tools -->
<svg width="800px" height="800px" viewBox="0 0 32 32" id="OBJECT" xmlns="http://www.w3.org/2000/svg"><defs><style>.cls-1{fill:#b2b2b2;}</style></defs><title/><rect height="5" rx="1" ry="1" width="5" x="24.5" y="5"/><path d="M23.58,13.71a1,1,0,0,0-1.15.07,5.91,5.91,0,0,1-6.66.54L8,9.88a.85.85,0,0,0-.22-.09L5.63,9.17a3,3,0,0,0-3.42,1.38L1.13,12.41a1.05,1.05,0,0,0-.1.76,1,1,0,0,0,.47.61l13,7.51a10.12,10.12,0,0,0,1.09.55,1,1,0,0,0,.41.09h.06a8.44,8.44,0,0,0,7.59-5.75A11.88,11.88,0,0,0,24,14.77,1,1,0,0,0,23.58,13.71Z"/><path class="cls-1" d="M8.89,10.38,8,9.88a.85.85,0,0,0-.22-.09L5.63,9.17a3,3,0,0,0-3.42,1.38L1.13,12.41a1.05,1.05,0,0,0-.1.76,1,1,0,0,0,.47.61l4.08,2.35Z"/><path class="cls-1" d="M29,8H24.85a2,2,0,0,0-2,1.67l-.71,4.27a9.85,9.85,0,0,1-.4,1.6A6.49,6.49,0,0,1,15.64,20L6,20a1,1,0,0,0-.24,0l-2.49.62A3,3,0,0,0,1,23.56V26a1,1,0,0,0,1,1H18.22a12.73,12.73,0,0,0,12.26-9.12A12.14,12.14,0,0,0,31,14.34V10A2,2,0,0,0,29,8Z"/><path d="M7,20H6a1,1,0,0,0-.24,0l-2.49.62A3,3,0,0,0,1,23.56V26a1,1,0,0,0,1,1H7Z"/></svg>