<?xml version="1.0" ?><!-- Uploaded to: SVG Repo, www.svgrepo.com, Generator: SVG Repo Mixer Tools -->
<svg fill="#000000" width="800px" height="800px" viewBox="0 0 100 100" id="Слой_1" version="1.1" xml:space="preserve" xmlns="http://www.w3.org/2000/svg" xmlns:xlink="http://www.w3.org/1999/xlink"><path d="M56.841,93.482c1.301,0.315,3.124-0.048,4.499-0.497c-1.424-0.327-2.637-0.827-3.641-1.54  c-1.255-0.89-2.384-2.417-2.687-3.989c-0.584,0.769-0.92,2.076-0.823,3.013C54.319,91.723,55.793,93.23,56.841,93.482z"/><path d="M84.258,82.575c5.739-7.433,7.013-16.425,7.07-22.661c0.1-10.857-3.996-22.272-11.532-32.141  c-2.178-2.852-6.261-6.732-9.341-9.313c-7.54-6.319-16.74-10.014-25.907-10.404c-4.413-0.185-8.315,0.49-11.565,2.015  c-3.773,1.771-6.659,4.765-7.917,8.213c-0.095,0.259-0.385,0.394-0.641,0.298c-0.26-0.095-0.394-0.382-0.299-0.641  c0.578-1.586,1.475-3.08,2.627-4.418c-2.136,0.128-4.283,0.021-6.396-0.318c-1.298-0.208-2.885-0.618-3.642-1.946  c-0.16-0.28-0.266-0.575-0.368-0.86C16.193,9.97,16.061,9.6,15.79,9.385c-0.386-0.307-1.041-0.272-1.947,0.106  c-2.795,1.17-4.941,3.184-5.889,5.525c-1.062,2.623-0.474,5.758,1.397,7.455c1.291,1.171,2.998,1.601,4.202,1.754  c1.583,0.203,3.229,0.076,4.819-0.045c0.729-0.056,1.457-0.104,2.187-0.153c1.436-0.096,2.921-0.195,4.371-0.349  c0.056-0.006,0.108-0.009,0.157-0.009c0.597,0,0.698,0.406,0.713,0.494l0.033,0.073c1.285,3.5,4.782,5.595,8.163,7.621  c0.528,0.317,1.054,0.631,1.566,0.949c8.686,5.381,15.491,13.596,19.162,23.132c3.67,9.535,4.13,20.193,1.293,30.01  c-0.457,1.58,0.816,3.66,2.258,4.683c1.307,0.926,3.003,1.482,5.188,1.699C70.937,93.066,79.107,89.242,84.258,82.575z"/></svg>