<?xml version="1.0" encoding="utf-8"?><!-- Uploaded to: SVG Repo, www.svgrepo.com, Generator: SVG Repo Mixer Tools -->
<svg fill="#000000" width="800px" height="800px" viewBox="0 0 24 24" id="banana" data-name="Flat Line" xmlns="http://www.w3.org/2000/svg" class="icon flat-line"><path id="secondary" d="M20,6V4a1,1,0,0,0-1-1H17a1,1,0,0,0-1,1c0,.6,0,1.38,0,2a9.09,9.09,0,0,1-4,8.08c-2,1.31-5,1.57-7,1.59a2,2,0,0,0-2,2H3a2,2,0,0,0,1.16,1.81c2.69,1.2,9.46,3.44,14.35-1.66C23,13.08,20,6,20,6Z" style="fill: rgb(44, 169, 188); stroke-width: 2;"></path><path id="primary" d="M20,6V4a1,1,0,0,0-1-1H17a1,1,0,0,0-1,1c0,.6,0,1.38,0,2a9.09,9.09,0,0,1-4,8.08c-2,1.31-5,1.57-7,1.59a2,2,0,0,0-2,2H3a2,2,0,0,0,1.16,1.81c2.69,1.2,9.46,3.44,14.35-1.66C23,13.08,20,6,20,6Z" style="fill: none; stroke: rgb(0, 0, 0); stroke-linecap: round; stroke-linejoin: round; stroke-width: 2;"></path></svg>