<?xml version="1.0" encoding="iso-8859-1"?>
<!-- Uploaded to: SVG Repo, www.svgrepo.com, Generator: SVG Repo Mixer Tools -->
<svg version="1.1" id="Layer_1" xmlns="http://www.w3.org/2000/svg" xmlns:xlink="http://www.w3.org/1999/xlink" 
	 viewBox="0 0 511.999 511.999" xml:space="preserve">
<path style="fill:#FCEE21;" d="M334.151,504.11c-122.417-6.387-220.017-106.513-222.377-229.956
	C109.244,141.939,218.987,34.716,351.227,34.716h2.071c14.824,0,26.841-12.017,26.841-26.841l0,0h20.131v19.835
	c0,14.939-12.197,27.003-27.135,26.839l-26.547-0.291c-82.948,36.241-140.915,119.01-140.915,215.317
	c0,93.641,54.803,174.483,134.085,212.2c4.121,1.96,6.814,6.029,6.818,10.592l0,0C346.583,499.116,340.891,504.461,334.151,504.11z"
	/>
<path style="fill:#666666;" d="M348.394,31.523c0,0,31.004,4.936,31.745-23.648h23.25c0,0,3.799,47.899-54.997,47.297V31.523
	H348.394z"/>
<path style="fill:#AFA505;" d="M174.466,269.574c0-107.845,72.709-198.664,171.767-226.234l0.353-3.927
	c-107.2,21.762-187.885,116.538-187.885,230.16c0,98.878,61.104,183.486,147.613,218.12l0.605-6.735
	C228.526,442.908,174.466,362.565,174.466,269.574z"/>
<path style="fill:#666666;" d="M347.42,504.487h-38.622v-31.531h12.321c14.962,0,27.092,12.13,27.092,27.092v3.647
	C348.212,504.133,347.857,504.487,347.42,504.487z"/>
<rect x="135.261" y="196.86" width="15.749" height="15.749"/>
<path d="M372.265,0v7.874c0,10.458-8.509,18.967-18.966,18.967h-2.071c-33.984,0-67.004,6.757-98.143,20.085
	c-30.142,12.9-57.052,31.292-79.982,54.664c-45.863,46.748-70.439,108.086-69.203,172.714
	c1.179,61.611,25.466,119.926,68.388,164.203c42.824,44.176,100.163,70.267,161.454,73.465c0.338,0.018,0.677,0.026,1.015,0.026
	c5.029,0,9.935-1.946,13.592-5.42c3.883-3.688,6.107-8.872,6.103-14.22c-0.007-7.484-4.445-14.43-11.31-17.695
	c-38.213-18.179-70.557-46.633-93.537-82.285c-23.589-36.594-36.056-79.06-36.056-122.805c0-89.712,52.794-170.942,134.66-207.423
	l24.842,0.272c0.131,0.001,0.261,0.002,0.392,0.002c9.198,0,17.85-3.554,24.4-10.033c6.644-6.571,10.303-15.337,10.303-24.682V0
	H372.265z M183.596,427.546c-28.557-29.459-48.283-65.565-57.69-104.696h9.355v-15.749h-12.555
	c-1.809-10.869-2.845-21.924-3.059-33.098c-1.155-60.366,21.823-117.679,64.699-161.384c21.482-21.896,46.694-39.127,74.935-51.215
	c8.973-3.841,18.114-7.093,27.396-9.763c-30.714,15.105-58.221,36.673-80.302,63.389c-5.008,6.059-9.69,12.352-14.059,18.835
	h-17.159v15.749h7.386c-5.754,10.135-10.755,20.668-14.991,31.498h-16.544v15.749h10.992c-7.212,22.969-11.025,47.04-11.159,71.395
	h-15.582v15.749h15.993c2.461,42.02,15.662,82.293,38.593,117.591h-14.688v15.749h15.749v-14.125
	c0.881,1.332,1.771,2.658,2.679,3.976c24.799,35.97,58.377,64.308,97.66,82.561C250.576,479.575,213.341,458.231,183.596,427.546z
	 M338.702,492.374c0.001,1.432-0.752,2.362-1.201,2.789c-0.461,0.438-1.449,1.157-2.941,1.084c-5.933-0.31-11.823-0.86-17.665-1.627
	v-16.117c6.316,3.742,12.813,7.212,19.48,10.384C337.809,489.568,338.701,490.904,338.702,492.374z M256.937,110.767h-18.784v15.749
	h6.268c-18.684,25.629-32.316,54.854-39.853,86.093h-13.662v15.749h10.415c-2.317,13.467-3.522,27.244-3.522,41.217
	c0,20.981,2.691,41.686,7.927,61.676h-14.82v15.749h15.749v-12.296c6.48,23.327,16.45,45.635,29.712,66.209
	c17.141,26.591,39.161,49.431,64.781,67.416v8.629c-20.367-9.078-39.148-21.026-55.865-35.466h0.219v-15.749h-16.688
	c-8.066-8.522-15.515-17.699-22.263-27.487c-26.15-37.93-39.974-82.428-39.974-128.681c0-52.668,18.445-103.989,51.937-144.511
	c30.873-37.353,73.077-63.941,119.689-75.651C306.492,64.164,278.991,85.247,256.937,110.767z M392.396,27.71
	c0,5.106-1.999,9.894-5.629,13.485c-3.631,3.59-8.389,5.531-13.545,5.481L357.199,46.5l-2.625-3.937
	c15.868-0.576,29.057-11.85,32.539-26.814h5.282V27.71H392.396z"/>
</svg>