<?xml version="1.0" encoding="utf-8"?><!-- Uploaded to: SVG Repo, www.svgrepo.com, Generator: SVG Repo Mixer Tools -->
<svg fill="#000000" width="800px" height="800px" viewBox="0 0 24 24" id="banana-left" data-name="Flat Color" xmlns="http://www.w3.org/2000/svg" class="icon flat-color"><path id="primary" d="M19.05,14.67c-1.64,0-4.67-.21-6.49-1.42C10.18,11.67,9,9.3,9,6c0-.65,0-1.43,0-2A2,2,0,0,0,7,2H5A2,2,0,0,0,3,4V5.81C2.51,7.07.23,13.75,4.78,18.5A11.17,11.17,0,0,0,13.12,22a18,18,0,0,0,7.07-1.6,3,3,0,0,0,1.61-1.63A3,3,0,0,0,19.05,14.67Z" style="fill: rgb(0, 0, 0);"></path></svg>