<?xml version="1.0" encoding="iso-8859-1"?>
<!-- Uploaded to: SVG Repo, www.svgrepo.com, Generator: SVG Repo Mixer Tools -->
<!DOCTYPE svg PUBLIC "-//W3C//DTD SVG 1.1//EN" "http://www.w3.org/Graphics/SVG/1.1/DTD/svg11.dtd">
<svg fill="#000000" version="1.1" id="Capa_1" xmlns="http://www.w3.org/2000/svg" xmlns:xlink="http://www.w3.org/1999/xlink" 
	 width="800px" height="800px" viewBox="0 0 32.515 32.515"
	 xml:space="preserve">
<g>
	<path d="M32.452,9.52C31.5,0.304,21.212,0.447,16.256,4.895C11.299,0.446,1.016,0.303,0.062,9.52
		c-1.232,11.862,16.194,21.053,16.194,21.053S33.681,21.381,32.452,9.52z M16.219,15.182c1.227-0.319,2.245-1.021,3.124-1.654
		c-0.114,0.133-0.231,0.269-0.351,0.408c-0.828,0.967-1.766,2.064-3.041,2.746c-1.647,0.881-3.374,0.983-4.528,0.983
		c-0.361,0-0.695-0.013-1.017-0.027c-0.613-0.534-1.095-1.194-1.374-1.967C7.922,12.587,11.784,16.333,16.219,15.182z
		 M18.723,20.977c-3.144,2.074-8.322,1.832-10.396-1.312c-2.074-3.144,3.251-0.001,7.894-2.484c2.998-1.602,4.174-5.22,6.02-4.691
		l0.657-2.299l1.752,1.231l-1.665,1.506C24.289,14.294,21.771,18.967,18.723,20.977z"/>
</g>
</svg>