<?xml version="1.0" ?>
<!-- Uploaded to: SVG Repo, www.svgrepo.com, Generator: SVG Repo Mixer Tools -->
<svg width="800px" height="800px" viewBox="0 0 132.29168 132.29168" id="svg8" version="1.1" xmlns="http://www.w3.org/2000/svg" xmlns:cc="http://creativecommons.org/ns#" xmlns:dc="http://purl.org/dc/elements/1.1/" xmlns:inkscape="http://www.inkscape.org/namespaces/inkscape" xmlns:rdf="http://www.w3.org/1999/02/22-rdf-syntax-ns#" xmlns:sodipodi="http://sodipodi.sourceforge.net/DTD/sodipodi-0.dtd" xmlns:svg="http://www.w3.org/2000/svg">
<defs id="defs2"/>
<g id="layer1" transform="translate(552.0129,637.91109)">
<g id="Fruits-8" transform="translate(-209.11291,22.488938)">
<rect height="132.29167" id="rect3085" rx="1.4650217" ry="1.4650217" style="display:inline;fill:#f9f9f9;fill-opacity:1;stroke:none;stroke-width:2;stroke-linecap:round;stroke-linejoin:round;stroke-miterlimit:4;stroke-dasharray:none;stroke-opacity:1;paint-order:stroke fill markers" width="132.29167" x="-342.89999" y="-660.40002"/>
<path d="m -303.6582,-645.22461 a 1.50015,1.50015 0 0 0 -1.17383,0.56055 l -8.32813,10.39844 a 1.50015,1.50015 0 0 0 -0.01,0.0137 1.5,1.5 0 0 0 -0.0527,0.0723 1.50015,1.50015 0 0 0 -0.0254,0.0371 1.5,1.5 0 0 0 -0.0293,0.0449 1.50015,1.50015 0 0 0 0,0.002 1.5,1.5 0 0 0 -0.10547,0.21875 c -3.30244,5.61277 -6.00626,12.97735 -7.05078,16.86718 -0.0632,0.22545 -0.12384,0.45007 -0.18164,0.67579 a 1.5,1.5 0 0 0 -0.0332,0.17968 1.5,1.5 0 0 0 -0.004,0.0234 c -2.76595,11.1025 0.73072,22.59593 5.74609,32.19141 a 1.50015,1.50015 0 0 0 0.01,0.0195 c 8.75098,16.17973 22.93189,29.57671 39.98632,36.73242 a 1.50015,1.50015 0 0 0 0.0176,0.008 c 5.03978,2.03784 10.60837,3.52647 16.22852,3.81641 a 1.5,1.5 0 0 0 0.30664,0.0449 1.5,1.5 0 0 0 0.31836,-0.0195 c 4.78341,0.16737 9.60344,-0.5504 14.08984,-2.68164 l 0.004,-0.002 c 3.52428,-1.66313 6.43355,-4.31107 8.58398,-7.45704 a 1.50015,1.50015 0 0 0 0.25977,-0.79101 c 1.63059,-2.21251 2.69572,-4.90243 3.18945,-6.89844 a 1.50015,1.50015 0 0 0 -1.80859,-1.81836 c -5.21576,1.2605 -10.58989,1.02859 -15.85938,-0.16406 -4.79563,-1.0854 -9.49572,-2.96858 -13.85351,-5.21875 -10e-4,-6.6e-4 -0.003,-0.001 -0.004,-0.002 -14.98921,-7.99128 -27.46267,-20.87404 -34.66016,-36.25977 l -0.004,-0.01 c -10e-4,-0.003 -0.003,-0.005 -0.004,-0.008 -1.83513,-4.0696 -3.30182,-8.41368 -4.0625,-12.8125 -0.4867,-2.81442 -0.67566,-5.65099 -0.50391,-8.45703 0.85157,-3.39774 3.8474,-6.41822 6.77344,-8.52148 2.95374,-2.12317 5.66992,-3.28516 5.66992,-3.28516 a 1.50015,1.50015 0 0 0 -0.082,-2.79101 l -12.84375,-4.6211 a 1.50015,1.50015 0 0 0 -0.5039,-0.0879 z m 0.49609,3.27344 8.67773,3.12109 c -0.98477,0.55927 -1.9828,1.10458 -3.16601,1.95508 -2.68347,1.9289 -5.55245,4.64677 -7.11328,8.125 l -4.27344,-3.91016 a 1.50015,1.50015 0 0 0 -0.006,-0.006 l -0.89648,-0.82031 z m -6.34766,12.92383 3.84571,3.51757 c -0.12484,2.81695 0.0532,5.63132 0.52148,8.39844 a 1.5,1.5 0 0 0 0.0195,0.16211 1.5,1.5 0 0 0 0.0488,0.19922 1.5,1.5 0 0 0 0.004,0.008 c 0.82496,4.64127 2.34564,9.15179 4.23828,13.34571 a 1.50015,1.50015 0 0 0 0.008,0.0176 c 7.4899,16.02164 20.42044,29.36629 35.99414,37.66407 a 1.50015,1.50015 0 0 0 0.0156,0.01 c 4.46988,2.30838 9.32645,4.25225 14.36328,5.41602 a 1.5,1.5 0 0 0 0.20898,0.0644 1.5,1.5 0 0 0 0.29102,0.0371 c 4.68506,1.03043 9.52431,1.31553 14.33594,0.56055 -0.62178,1.68592 -1.40602,3.39498 -2.39649,4.43945 -0.54703,0.3365 -1.10474,0.65288 -1.6875,0.92773 a 1.50015,1.50015 0 0 0 -0.004,0.002 c -0.55281,0.26272 -1.11204,0.50197 -1.67579,0.71875 -0.56425,0.21696 -1.13384,0.41236 -1.70898,0.58594 a 1.5,1.5 0 0 0 -1.00391,1.86914 1.5,1.5 0 0 0 0.93946,0.98046 c -0.69245,0.46038 -1.32119,1.01502 -2.07618,1.3711 a 1.50015,1.50015 0 0 0 -0.004,0.002 c -4.07076,1.93462 -8.49298,2.61184 -12.9961,2.41602 -5.27174,-0.22925 -10.64087,-1.66592 -15.53515,-3.64453 -10e-4,-5.4e-4 -0.003,-10e-4 -0.004,-0.002 -16.354,-6.86701 -30.04785,-19.78739 -38.48047,-35.36914 l -0.002,-0.006 c -4.85153,-9.28386 -8.04508,-20.15697 -5.45898,-30.2539 0.0535,-0.20897 0.10951,-0.41679 0.16796,-0.625 a 1.50015,1.50015 0 0 0 0.004,-0.0176 c 0.61378,-2.28572 2.07319,-6.09043 3.77344,-9.95899 -0.0133,0.0387 -0.0337,0.0865 -0.0469,0.125 a 1.5,1.5 0 0 0 0.9336,1.9043 1.5,1.5 0 0 0 1.90429,-0.93359 c 0.41155,-1.20438 0.91368,-2.55189 1.46289,-3.93164 z m -4.96093,11.1875 a 1.5,1.5 0 0 0 -0.20703,0.0117 1.5,1.5 0 0 0 -0.20118,0.0391 1.5,1.5 0 0 0 -0.0976,0.0312 1.5,1.5 0 0 0 -0.28125,0.1289 1.5,1.5 0 0 0 -0.0859,0.0547 1.5,1.5 0 0 0 -0.084,0.0625 1.5,1.5 0 0 0 -0.15039,0.13867 1.5,1.5 0 0 0 -0.35547,0.61914 1.5,1.5 0 0 0 -0.043,0.20118 1.5,1.5 0 0 0 -0.01,0.0898 c -0.0689,0.83498 -0.10809,1.66951 -0.11719,2.50391 -0.0156,1.43484 0.0545,2.86838 0.19922,4.29296 0.14475,1.42466 0.36422,2.8405 0.64844,4.24414 0.28423,1.4037 0.63359,2.79564 1.03711,4.16993 0.40347,1.37412 0.86041,2.73089 1.36328,4.0664 0.50292,1.33563 1.05198,2.64963 1.63477,3.9375 0.58282,1.28793 1.19991,2.54947 1.84375,3.78125 a 1.50015,1.50015 0 0 0 0.01,0.0195 c 1.09388,2.02248 2.27261,4.00122 3.53125,5.92969 1.25871,1.92854 2.59845,3.80582 4.01172,5.62696 1.4132,1.82103 2.9009,3.58637 4.45899,5.2871 1.55811,1.70077 3.18646,3.33592 4.8789,4.90235 1.6925,1.56648 3.44815,3.06323 5.26563,4.48242 1.81742,1.41913 3.69678,2.76159 5.6289,4.01953 0.96619,0.62906 1.94468,1.23813 2.9375,1.82422 0.99296,0.58616 1.99912,1.14986 3.01758,1.69141 1.01843,0.54152 2.05081,1.05937 3.09375,1.55468 1.04275,0.49524 2.09612,0.9668 3.16211,1.41407 a 1.50015,1.50015 0 0 0 0.0176,0.008 c 1.18933,0.4809 2.4087,0.9341 3.65039,1.34765 1.24147,0.4135 2.50548,0.78724 3.78711,1.11524 1.28162,0.32798 2.57952,0.61019 3.88867,0.83398 0.80463,0.13757 1.61439,0.2532 2.42578,0.34571 a 1.5,1.5 0 0 0 0.41016,-0.01 1.5,1.5 0 0 0 0.10156,-0.0195 1.5,1.5 0 0 0 0.0996,-0.0273 1.5,1.5 0 0 0 0.0977,-0.0332 1.5,1.5 0 0 0 0.0937,-0.041 1.5,1.5 0 0 0 0.0918,-0.0469 1.5,1.5 0 0 0 0.0879,-0.0527 1.5,1.5 0 0 0 0.0859,-0.0586 1.5,1.5 0 0 0 0.15625,-0.13476 1.5,1.5 0 0 0 0.13477,-0.1543 1.5,1.5 0 0 0 0.26562,-0.55273 1.5,1.5 0 0 0 0.0215,-0.0996 1.5,1.5 0 0 0 0.0137,-0.0898 1.5,1.5 0 0 0 0.008,-0.10351 1.5,1.5 0 0 0 -0.18555,-0.79102 1.5,1.5 0 0 0 -0.0527,-0.0898 1.5,1.5 0 0 0 -0.0586,-0.084 1.5,1.5 0 0 0 -0.13477,-0.15626 1.5,1.5 0 0 0 -0.23633,-0.19531 1.5,1.5 0 0 0 -0.17969,-0.10156 1.5,1.5 0 0 0 -0.0937,-0.043 1.5,1.5 0 0 0 -0.0976,-0.0332 1.5,1.5 0 0 0 -0.28906,-0.0625 c -0.75344,-0.0859 -1.50776,-0.19565 -2.25977,-0.32422 -1.22355,-0.20916 -2.44235,-0.47211 -3.65039,-0.78125 -1.20804,-0.30916 -2.40541,-0.6641 -3.58398,-1.05664 -1.17228,-0.39045 -2.32615,-0.81735 -3.45508,-1.27344 l -0.0176,-0.008 c -1.01687,-0.42698 -2.02174,-0.87665 -3.01758,-1.34961 -5.2e-4,-2.5e-4 -0.001,2.5e-4 -0.002,0 -1.00095,-0.47542 -1.99233,-0.97585 -2.97071,-1.49609 -0.97886,-0.52048 -1.94557,-1.06134 -2.90039,-1.625 -0.95495,-0.56374 -1.89665,-1.14873 -2.82617,-1.75391 -1.85928,-1.21052 -3.66744,-2.50223 -5.41797,-3.86914 -1.75046,-1.36685 -3.44433,-2.80997 -5.07617,-4.32031 -1.6319,-1.51039 -3.20263,-3.08851 -4.70508,-4.72852 -1.50248,-1.64005 -2.93736,-3.34075 -4.30078,-5.09766 -1.36335,-1.7568 -2.65337,-3.56992 -3.86719,-5.42968 -1.21337,-1.85911 -2.3503,-3.76626 -3.40429,-5.71485 -4.3e-4,-7.8e-4 -0.002,-0.001 -0.002,-0.002 -0.61551,-1.17842 -1.20482,-2.385 -1.75976,-3.61133 -0.55799,-1.23306 -1.08023,-2.48546 -1.5586,-3.75586 -0.47839,-1.27051 -0.91201,-2.55801 -1.29296,-3.85547 -0.38092,-1.29727 -0.70856,-2.60602 -0.97461,-3.91992 -0.26606,-1.31397 -0.47142,-2.63367 -0.60547,-3.95312 -0.13403,-1.31957 -0.19795,-2.63886 -0.1836,-3.95508 0.009,-0.76572 0.0426,-1.52796 0.10547,-2.28906 a 1.5,1.5 0 0 0 0,-0.002 1.5,1.5 0 0 0 0.004,-0.20508 1.5,1.5 0 0 0 -0.0781,-0.40234 1.5,1.5 0 0 0 -0.0371,-0.0957 1.5,1.5 0 0 0 0,-0.002 1.5,1.5 0 0 0 -0.043,-0.0918 1.5,1.5 0 0 0 -0.0488,-0.0918 1.5,1.5 0 0 0 -0.11719,-0.16797 1.5,1.5 0 0 0 -0.0684,-0.0781 1.5,1.5 0 0 0 -0.0723,-0.0742 1.5,1.5 0 0 0 -0.15821,-0.13086 1.5,1.5 0 0 0 -0.17383,-0.10938 1.5,1.5 0 0 0 -0.0937,-0.0449 1.5,1.5 0 0 0 -0.19335,-0.0703 1.5,1.5 0 0 0 -0.20118,-0.043 1.5,1.5 0 0 0 -0.0898,-0.01 1.5,1.5 0 0 0 -0.10156,-0.006 z" id="path3091" style="color:#000000;font-style:normal;font-variant:normal;font-weight:normal;font-stretch:normal;font-size:medium;line-height:normal;font-family:sans-serif;font-variant-ligatures:normal;font-variant-position:normal;font-variant-caps:normal;font-variant-numeric:normal;font-variant-alternates:normal;font-variant-east-asian:normal;font-feature-settings:normal;font-variation-settings:normal;text-indent:0;text-align:start;text-decoration:none;text-decoration-line:none;text-decoration-style:solid;text-decoration-color:#000000;letter-spacing:normal;word-spacing:normal;text-transform:none;writing-mode:lr-tb;direction:ltr;text-orientation:mixed;dominant-baseline:auto;baseline-shift:baseline;text-anchor:start;white-space:normal;shape-padding:0;shape-margin:0;inline-size:0;clip-rule:nonzero;display:inline;overflow:visible;visibility:visible;opacity:1;isolation:auto;mix-blend-mode:normal;color-interpolation:sRGB;color-interpolation-filters:linearRGB;solid-color:#000000;solid-opacity:1;vector-effect:none;fill:#2863a7;fill-opacity:1;fill-rule:nonzero;stroke:none;stroke-width:3;stroke-linecap:round;stroke-linejoin:round;stroke-miterlimit:4;stroke-dasharray:none;stroke-dashoffset:0;stroke-opacity:1;color-rendering:auto;image-rendering:auto;shape-rendering:auto;text-rendering:auto;enable-background:accumulate;stop-color:#000000;stop-opacity:1"/>
</g>
</g>
</svg>